<svg width="475" height="271" viewBox="0 0 475 271" fill="none" xmlns="http://www.w3.org/2000/svg">
<rect width="145" height="37" rx="10" fill="#EFD02E"/>
<rect x="12" y="63" width="120" height="10" rx="5" fill="#E2E8F0" stroke="black"/>
<rect x="467" y="210" width="120" height="10" rx="5" transform="rotate(180 467 210)" fill="#E2E8F0" stroke="black"/>
<rect x="12" y="93" width="120" height="10" rx="5" fill="#E2E8F0" stroke="black"/>
<rect x="467" y="180" width="120" height="10" rx="5" transform="rotate(180 467 180)" fill="#E2E8F0" stroke="black"/>
<rect x="12" y="78" width="76" height="10" rx="5" fill="#E2E8F0" stroke="black"/>
<rect x="467" y="195" width="76" height="10" rx="5" transform="rotate(180 467 195)" fill="#E2E8F0" stroke="black"/>
<rect x="181" y="78" width="38" height="10" rx="5" fill="#E2E8F0" stroke="black"/>
<rect x="181" y="63" width="97" height="10" rx="5" fill="#E2E8F0" stroke="black"/>
<rect x="181" y="93" width="76" height="10" rx="5" fill="#E2E8F0" stroke="black"/>
<rect x="347" y="63" width="46" height="10" rx="5" fill="#E2E8F0" stroke="black"/>
<rect x="165" width="145" height="37" rx="10" fill="#86F353"/>
<rect x="330" width="145" height="37" rx="10" fill="#329BD6"/>
<circle cx="428.5" cy="88.5" r="28" fill="#E2E8F0" stroke="black"/>
<rect x="13.5" y="170.5" width="117" height="100" rx="6.5" fill="#E2E8F0"/>
<rect x="13.5" y="170.5" width="117" height="100" rx="6.5" stroke="black"/>
</svg>
