<svg width="455" height="196" viewBox="0 0 455 196" fill="none" xmlns="http://www.w3.org/2000/svg">
<rect x="1" width="139" height="35" rx="10" fill="#121212"/>
<rect y="63" width="140" height="10" rx="5" fill="#6F6D68"/>
<rect x="455" y="179" width="139" height="10" rx="5" transform="rotate(180 455 179)" fill="#6F6D68"/>
<rect y="93" width="140" height="10" rx="5" fill="#6F6D68"/>
<rect x="455" y="149" width="139" height="10" rx="5" transform="rotate(180 455 149)" fill="#6F6D68"/>
<rect y="78" width="89" height="10" rx="5" fill="#6F6D68"/>
<rect x="455" y="164" width="88" height="10" rx="5" transform="rotate(180 455 164)" fill="#6F6D68"/>
<rect x="161" y="78" width="53" height="10" rx="5" fill="#6F6D68"/>
<rect x="161" y="63" width="136" height="10" rx="5" fill="#6F6D68"/>
<rect x="161" y="93" width="106" height="10" rx="5" fill="#6F6D68"/>
<rect x="316" y="63" width="69" height="11" rx="5.5" fill="#6F6D68"/>
<rect x="159" width="138" height="35" rx="10" fill="#121212"/>
<rect x="316" width="139" height="35" rx="10" fill="#121212"/>
<circle cx="424" cy="91" r="31" fill="#6F6D68"/>
<rect x="1" y="139" width="139" height="57" rx="7" fill="#6F6D68"/>
<rect x="297" y="139" width="57" height="33" rx="7" transform="rotate(90 297 139)" fill="#6F6D68"/>
</svg>
