<svg width="248" height="328" viewBox="0 0 248 328" fill="none" xmlns="http://www.w3.org/2000/svg">
<path d="M31.8387 105.469C35.8988 83.6896 67.1012 83.6896 71.1613 105.469L91.6887 215.585C93.9821 227.887 84.5417 239.25 72.0274 239.25H30.9726C18.4583 239.25 9.01793 227.887 11.3113 215.585L31.8387 105.469Z" fill="#EFD02E"/>
<path d="M176.839 109.469C180.899 87.6896 212.101 87.6896 216.161 109.469L236.689 219.585C238.982 231.887 229.542 243.25 217.027 243.25H175.973C163.458 243.25 154.018 231.887 156.311 219.585L176.839 109.469Z" fill="#329BD6"/>
<path d="M103.839 222.531C107.899 244.31 139.101 244.31 143.161 222.531L163.689 112.415C165.982 100.113 156.542 88.75 144.027 88.75H102.973C90.4583 88.75 81.0179 100.113 83.3113 112.415L103.839 222.531Z" fill="#86F353"/>
</svg>
